<?xml version="1.0" encoding="UTF-8" standalone="no"?>
<!-- Created with Inkscape (http://www.inkscape.org/) -->

<svg
   version="1.1"
   id="svg1"
   width="470.43011"
   height="409.49689"
   viewBox="0 0 470.43011 409.49689"
   xmlns:xlink="http://www.w3.org/1999/xlink"
   xmlns="http://www.w3.org/2000/svg"
   xmlns:svg="http://www.w3.org/2000/svg">
  <defs
     id="defs1">
    <linearGradient
       id="linearGradient1">
      <stop
         style="stop-color:#a113b6;stop-opacity:1;"
         offset="0"
         id="stop1" />
      <stop
         style="stop-color:#4412b4;stop-opacity:0.80119282;"
         offset="1"
         id="stop2" />
    </linearGradient>
    <linearGradient
       xlink:href="#linearGradient1"
       id="linearGradient2"
       x1="496.95013"
       y1="99.919563"
       x2="485.81073"
       y2="312.47171"
       gradientUnits="userSpaceOnUse"
       gradientTransform="matrix(2.2102109,0,0,2.2454882,-832.59216,-206.693)" />
  </defs>
  <g
     id="g1"
     transform="translate(-18.247145,-51.568788)">
    <path
       style="fill:url(#linearGradient2);stroke-width:2.22778"
       d="m 170.67423,458.71279 c -6.00755,-5.46866 -4.31232,-7.17889 17.55287,-17.70839 23.66261,-11.39507 22.06427,-9.17614 22.08388,-30.65837 l 0.0155,-16.5949 h 43.1361 43.13607 l 0.0155,16.5949 c 0.0199,21.4686 -1.57646,19.25558 22.09625,30.63791 21.85826,10.50992 23.57009,12.24011 17.5405,17.72885 l -2.58473,2.35289 H 253.46288 173.25962 Z M 22.611185,380.97136 c -3.626979,-1.32841 -4.343352,-5.45808 -4.343352,-25.03825 V 336.72074 H 253.46222 488.65657 v 19.21237 c 0,20.00097 -0.687,23.69271 -4.66772,25.08325 -1.98112,0.69202 -459.487162,0.64742 -461.377665,-0.0449 z M 18.514249,190.32404 18.781353,56.081344 21.663004,53.825055 24.544677,51.568788 H 253.46222 482.37973 l 2.88167,2.256267 2.88165,2.256289 0.26711,134.242696 0.2671,134.24268 H 253.46222 18.247145 Z M 135.2461,312.969 c 3.28852,-2.71219 3.38414,-58.34173 0.10542,-61.32639 -1.93236,-1.75904 -3.42348,-1.86984 -25.1627,-1.86984 -30.447486,0 -27.216821,-3.78052 -27.216821,31.84887 0,29.24562 0.251235,31.09817 4.432092,32.68079 4.717342,1.78568 45.436189,0.65077 47.842049,-1.33343 z M 95.296555,282.49512 v -20.56833 h 14.892225 14.8922 v 20.56833 20.56833 h -14.8922 -14.892225 z m 112.040935,30.04773 c 1.85658,-2.089 1.96157,-4.18063 1.96157,-39.07557 v -36.86845 l -2.5755,-2.34447 -2.57549,-2.34449 -23.18513,0.2834 c -29.53056,0.36097 -26.09751,-5.09218 -26.09751,41.45387 0,46.56872 -3.46787,41.56106 28.59317,41.2889 21.6806,-0.18413 21.93853,-0.20995 23.87889,-2.39319 z m -40.14746,-38.9295 v -29.45012 h 14.37868 14.37871 v 29.45012 29.4501 h -14.37871 -14.37868 z m 111.64046,39.48222 c 1.69105,-1.5411 1.81655,-5.14928 1.83198,-52.66905 l 0.0155,-51.01462 -2.42465,-1.79031 c -3.70482,-2.73554 -45.87952,-2.73554 -49.58434,0 l -2.42465,1.79031 0.0155,50.90661 c 0.0177,54.19152 -0.0623,53.32225 4.93724,54.28033 6.99193,1.33993 45.85819,0.1134 47.63204,-1.50327 z M 239.08352,260.5244 v -42.53907 h 14.3787 14.37868 v 42.53907 42.53905 h -14.37868 -14.3787 z m 110.81597,52.4446 c 2.15767,-1.77953 2.15949,-1.83917 2.15949,-71.23498 v -69.45396 l -2.28262,-1.4554 c -1.89959,-1.21117 -6.10962,-1.45541 -25.08817,-1.45541 h -22.80555 l -2.12866,2.46341 c -2.46076,2.84776 -3.44382,135.66119 -1.03444,139.75931 2.43947,4.14933 46.38487,5.33171 51.17995,1.37703 z m -38.9225,-70.67563 v -60.7701 h 14.3787 14.37869 v 60.7701 60.77008 h -14.37869 -14.3787 z m 111.0139,70.24948 c 1.8987,-2.13643 1.96156,-4.94392 1.96156,-87.61274 v -85.40559 l -2.24776,-1.90627 c -3.43785,-2.91556 -46.93423,-2.94715 -50.13176,-0.0364 -3.01248,2.74226 -3.26172,172.64851 -0.25676,175.03144 3.04182,2.41217 4.22115,2.51441 26.79582,2.32278 21.6806,-0.18413 21.93853,-0.20995 23.8789,-2.3932 z m -40.14747,-87.07811 v -77.59873 h 14.37869 14.3787 l 9.7e-4,23.60684 c 5.3e-4,12.98375 0.30733,47.90318 0.68176,77.59873 l 0.68082,53.99187 h -15.06047 -15.06047 z m -246.2835,-28.15335 c 1.29755,-0.57229 9.381,-8.50432 17.96323,-17.62675 l 15.60404,-16.58621 7.67494,0.097 c 7.12888,0.09 8.02178,-0.12552 12.54999,-3.02946 l 4.87509,-3.12634 19.45719,6.81727 c 10.70147,3.7495 19.61589,7.25994 19.80981,7.80097 0.19384,0.54105 0.86249,2.79558 1.48564,5.01013 6.16486,21.90804 41.11225,16.58785 39.74701,-6.05085 l -0.40401,-6.69903 19.09735,-17.28271 c 16.173,-14.63625 19.41191,-17.1638 21.15146,-16.50607 14.31836,5.41389 31.28432,-7.78248 27.49181,-21.38354 l -1.08768,-3.90077 9.39304,-7.921679 9.39302,-7.921656 35.77628,-0.01796 35.77627,-0.01796 -3.42422,3.800489 c -7.85847,8.722016 -8.60295,12.798206 -2.70056,14.785796 3.98719,1.34265 5.80134,0.1161 16.25647,-10.991101 13.76743,-14.626054 13.88561,-13.30326 -2.37617,-26.593721 -11.6428,-9.515435 -14.50957,-10.685874 -18.3745,-7.501906 -3.11178,2.563516 -2.31812,5.920768 2.44383,10.337621 l 4.32202,4.008803 h -34.55313 c -40.28675,0 -36.97908,-0.699133 -50.33179,10.638494 l -10.2935,8.740092 -4.7474,-1.318326 c -15.61081,-4.335073 -31.01525,10.867194 -24.80434,24.478804 0.72259,1.58359 -2.06095,4.5382 -18.18261,19.29984 l -19.03581,17.42999 -3.68407,-1.4012 c -5.74898,-2.18661 -13.57381,-1.21016 -19.06409,2.37896 l -4.52956,2.96112 -19.99583,-7.11397 -19.99582,-7.11398 -0.52148,-4.21166 c -1.97759,-15.9713 -27.15503,-20.8121 -36.73384,-7.06271 -3.77466,5.41816 -4.52247,9.87418 -2.61777,15.59891 1.78775,5.37323 3.28875,3.07937 -13.76683,21.03897 l -11.80259,12.42817 -16.9548,-15.9991 C 98.102462,150.84074 96.226612,149.70363 92.0395,153.15301 c -4.538049,3.73849 -3.077586,5.83048 17.71648,25.37723 16.43972,15.45363 20.47678,18.88603 23.23632,19.75598 0.11471,0.0362 1.27007,-0.40252 2.56762,-0.97481 z"
       id="path1" />
  </g>
</svg>
