<?xml version="1.0" encoding="UTF-8" standalone="no"?>
<!-- Created with Inkscape (http://www.inkscape.org/) -->

<svg
   width="138.01115mm"
   height="142.2435mm"
   viewBox="0 0 138.01115 142.2435"
   version="1.1"
   id="svg1"
   xml:space="preserve"
   xmlns="http://www.w3.org/2000/svg"
   xmlns:svg="http://www.w3.org/2000/svg"><defs
     id="defs1" /><g
     id="layer2"
     transform="translate(-33.122679,-29.074351)"><g
       id="g87"><rect
         style="fill:#000000;stroke-width:0.323009"
         id="rect28"
         width="40.271629"
         height="1.147893"
         x="-15.754311"
         y="201.38982"
         transform="matrix(0.39282055,-0.91961515,0.79133271,0.61138575,0,0)" /><rect
         style="fill:#000000;stroke-width:0.37375"
         id="rect29"
         width="45.051716"
         height="1.373791"
         x="-15.116058"
         y="137.42938"
         transform="matrix(0.82304244,-0.56797988,0.57244342,0.81994423,0,0)" /><rect
         style="fill:#000000;stroke-width:0.373899"
         id="rect30"
         width="45.446823"
         height="1.3629328"
         x="-164.57835"
         y="75.130478"
         transform="matrix(-0.24825953,-0.96869356,0.96603042,-0.25842834,0,0)" /><rect
         style="fill:#000000;stroke-width:0.379709"
         id="rect31"
         width="44.638271"
         height="1.4310808"
         x="105.96345"
         y="90.75235"
         transform="matrix(0.99817105,0.06045267,-0.05489625,0.99849207,0,0)" /><rect
         style="fill:#000000;stroke-width:0.379189"
         id="rect32"
         width="44.830643"
         height="1.4210411"
         x="-64.120399"
         y="129.02727"
         transform="matrix(0.34222836,-0.9396168,0.95147159,0.30773656,0,0)" /><rect
         style="fill:#000000;stroke-width:0.379709"
         id="rect33"
         width="44.638271"
         height="1.4310808"
         x="98.308044"
         y="9.136817"
         transform="matrix(0.76572917,0.64316316,-0.63889141,0.76929692,0,0)" /><rect
         style="fill:#000000;stroke-width:0.499612"
         id="rect34"
         width="49.796707"
         height="2.2209289"
         x="-220.84662"
         y="121.58456"
         transform="matrix(0.02268194,-0.99974273,0.59404734,-0.80443009,0,0)" /><rect
         style="fill:#000000;stroke-width:0.394"
         id="rect35"
         width="47.470226"
         height="1.4489053"
         x="114.01824"
         y="85.11367"
         transform="matrix(0.92458365,0.38097907,-0.42495052,0.90521658,0,0)" /><rect
         style="fill:#000000;stroke-width:0.301266"
         id="rect36"
         width="36.259502"
         height="1.1090393"
         x="95.875191"
         y="44.042477"
         transform="matrix(0.74214868,0.67023528,-0.68635928,0.72726264,0,0)" /><rect
         style="fill:#000000;stroke-width:0.317226"
         id="rect38"
         width="38.528915"
         height="1.1572303"
         x="140.19075"
         y="84.057755"
         transform="matrix(0.81338391,0.58172728,-0.76603442,0.64279955,0,0)" /><rect
         style="fill:#000000;stroke-width:0.363707"
         id="rect40"
         width="40.499363"
         height="1.4471837"
         x="155.14929"
         y="141.39557"
         transform="matrix(0.99984372,0.01767909,-0.29781847,0.95462251,0,0)" /><rect
         style="fill:#000000;stroke-width:0.329071"
         id="rect41"
         width="40.570389"
         height="1.1826023"
         x="-174.43605"
         y="115.33942"
         transform="matrix(-0.24076275,-0.97058401,0.96386356,-0.26639634,0,0)" /><rect
         style="fill:#000000;stroke-width:0.388174"
         id="rect42"
         width="48.47617"
         height="1.3771884"
         x="-168.53642"
         y="65.765594"
         transform="matrix(-0.54549445,-0.83811443,0.7754865,-0.63136412,0,0)" /><rect
         style="fill:#000000;stroke-width:0.4072"
         id="rect43"
         width="48.791821"
         height="1.5056988"
         x="-48.725418"
         y="174.3709"
         transform="matrix(0.61294539,-0.79012526,0.81664532,0.57713986,0,0)" /><rect
         style="fill:#000000;stroke-width:0.307191"
         id="rect44"
         width="25.267109"
         height="1.6547494"
         x="138.18947"
         y="96.125893"
         transform="matrix(0.99950429,0.03148292,0.06569575,0.99783969,0,0)" /><rect
         style="fill:#000000;stroke-width:0.318908"
         id="rect47"
         width="40.690536"
         height="1.107414"
         x="-38.96608"
         y="205.97139"
         transform="matrix(0.80100826,-0.59865329,0.73407318,0.67907038,0,0)" /><rect
         style="fill:#000000;stroke-width:0.303421"
         id="rect48"
         width="38.990181"
         height="1.0461825"
         x="-78.262344"
         y="186.30107"
         transform="matrix(0.83919613,-0.54382887,0.78006392,0.62569982,0,0)" /><rect
         style="fill:#000000;stroke-width:0.370661"
         id="rect49"
         width="39.856548"
         height="1.5272926"
         x="138.75218"
         y="151.86633"
         transform="matrix(0.99270074,0.12060357,-0.37391702,0.92746216,0,0)" /><rect
         style="fill:#000000;stroke-width:0.251176"
         id="rect50"
         width="28.679518"
         height="0.97466213"
         x="-189.16049"
         y="69.745132"
         transform="matrix(-0.28370591,-0.95891133,0.9741861,-0.2257464,0,0)" /><rect
         style="fill:#000000;stroke-width:0.368127"
         id="rect51"
         width="40.43697"
         height="1.4848644"
         x="-172.81627"
         y="27.386688"
         transform="matrix(-0.30783252,-0.95144056,0.97827753,-0.20729943,0,0)" /><rect
         style="fill:#000000;stroke-width:3.1836;stroke-dasharray:none"
         id="rect52"
         width="1.2171193"
         height="24.047882"
         x="180.32971"
         y="73.252373"
         transform="matrix(0.9869737,0.16088173,-0.11818396,0.99299173,0,0)" /><rect
         style="fill:#000000;stroke-width:3.43422;stroke-dasharray:none"
         id="rect53"
         width="19.062941"
         height="1.5080684"
         x="29.735769"
         y="193.56648"
         transform="matrix(0.94609438,-0.32389109,0.38267061,0.92388486,0,0)" /><rect
         style="fill:#000000;stroke-width:3.90389;stroke-dasharray:none"
         id="rect54"
         width="22.135359"
         height="1.6782715"
         x="45.629181"
         y="193.39015"
         transform="matrix(0.95147995,-0.30771076,0.40155572,0.9158346,0,0)" /><rect
         style="fill:#000000;stroke-width:0.36694"
         id="rect55"
         width="44.160675"
         height="1.3509033"
         x="120.4833"
         y="117.5396"
         transform="matrix(0.92413812,0.38205857,-0.42379829,0.90575659,0,0)" /><rect
         style="fill:#000000;stroke-width:0.21316"
         id="rect56"
         width="23.031626"
         height="0.87409627"
         x="-166.97498"
         y="-48.256546"
         transform="matrix(-0.61967322,-0.78485992,0.88258383,-0.47015503,0,0)" /><rect
         style="fill:#000000;stroke-width:0.222584"
         id="rect57"
         width="26.442314"
         height="0.8301518"
         x="-34.610271"
         y="137.42883"
         transform="matrix(0.79994884,-0.6000682,0.54041056,0.84140146,0,0)" /><rect
         style="fill:#000000;stroke-width:0.318556"
         id="rect58"
         width="41.137371"
         height="1.0929592"
         x="-143.7798"
         y="17.48197"
         transform="matrix(-0.21761705,-0.97603424,0.95583145,-0.29391536,0,0)" /><rect
         style="fill:#000000;stroke-width:0.21316"
         id="rect59"
         width="23.031626"
         height="0.87409627"
         x="-144.4745"
         y="-47.348972"
         transform="matrix(-0.61967322,-0.78485992,0.88258383,-0.47015503,0,0)" /><rect
         style="fill:#000000;stroke-width:3.92405;stroke-dasharray:none"
         id="rect60"
         width="1.0736736"
         height="41.416145"
         x="44.824009"
         y="62.503777"
         transform="matrix(0.94820814,0.3176497,-0.08374753,0.99648701,0,0)" /><rect
         style="fill:#000000;stroke-width:0.21217"
         id="rect61"
         width="21.916605"
         height="0.91005856"
         x="-95.242065"
         y="31.003313"
         transform="matrix(-0.09123813,-0.99582909,0.99641477,0.08460249,0,0)" /><rect
         style="fill:#000000;stroke-width:0.20106"
         id="rect62"
         width="22.172333"
         height="0.80781931"
         x="-87.949478"
         y="63.636257"
         transform="matrix(0.23610681,-0.97172711,0.85838927,0.51299888,0,0)" /><rect
         style="fill:#000000;stroke-width:4.06043;stroke-dasharray:none"
         id="rect63"
         width="1.546339"
         height="19.434282"
         x="206.66118"
         y="24.534954"
         transform="matrix(0.81098911,0.58506125,-0.58076147,0.81407376,0,0)" /><rect
         style="fill:#000000;stroke-width:3.89225;stroke-dasharray:none"
         id="rect64"
         width="1.4926025"
         height="18.500618"
         x="207.70056"
         y="8.1809978"
         transform="matrix(0.82275132,0.56840149,-0.59741083,0.80193536,0,0)" /><rect
         style="fill:#000000;stroke-width:0.326776"
         id="rect65"
         width="38.477257"
         height="1.2296073"
         x="-15.978967"
         y="99.764244"
         transform="matrix(0.78485381,-0.61968097,0.52089008,0.85362375,0,0)" /><rect
         style="fill:#000000;stroke-width:0.321795"
         id="rect66"
         width="37.782291"
         height="1.2143377"
         x="7.2135181"
         y="102.05984"
         transform="matrix(0.41456163,-0.91002125,0.64931642,0.76051836,0,0)" /><rect
         style="fill:#000000;stroke-width:6.91017;stroke-dasharray:none"
         id="rect68"
         width="2.3275192"
         height="37.394958"
         x="93.361893"
         y="-25.476685"
         transform="matrix(0.46053333,0.88764242,-0.25798111,0.96614996,0,0)" /><rect
         style="fill:#000000;stroke-width:0.449408"
         id="rect69"
         width="47.88805"
         height="1.8686324"
         x="56.622101"
         y="86.879692"
         transform="matrix(0.96391915,-0.26619523,0.18027493,0.98361627,0,0)" /><rect
         style="fill:#000000;stroke-width:0.348804"
         id="rect70"
         width="39.053356"
         height="1.3803008"
         x="-116.30103"
         y="22.427135"
         transform="matrix(-0.82122256,-0.57060801,0.93841403,-0.34551281,0,0)" /><rect
         style="fill:#000000;stroke-width:3.73776;stroke-dasharray:none"
         id="rect71"
         width="1.5033227"
         height="23.701849"
         x="73.49691"
         y="11.374582"
         transform="matrix(0.77279923,0.63465059,-0.54330743,0.83953382,0,0)" /><rect
         style="fill:#000000;stroke-width:3.71929;stroke-dasharray:none"
         id="rect72"
         width="1.5869465"
         height="22.231577"
         x="77.728416"
         y="4.5419717"
         transform="matrix(0.87456296,0.48491198,-0.69197765,0.72191893,0,0)" /><rect
         style="fill:#000000;stroke-width:4.38741;stroke-dasharray:none"
         id="rect73"
         width="2.1255157"
         height="22.27108"
         x="-18.920908"
         y="77.736168"
         transform="matrix(0.67338088,-0.73929573,0.80733871,0.59008833,0,0)" /><rect
         style="fill:#000000;stroke-width:4.98989;stroke-dasharray:none"
         id="rect74"
         width="1.5269396"
         height="41.588669"
         x="78.160019"
         y="-70.055313"
         transform="matrix(0.31498138,0.94909786,-0.84378935,0.53667451,0,0)" /><rect
         style="fill:#000000;stroke-width:0.311178"
         id="rect75"
         width="22.675573"
         height="1.8920399"
         x="84.268837"
         y="71.113876"
         transform="matrix(0.94286792,-0.33316677,-0.20275952,0.97922855,0,0)" /><rect
         style="fill:#000000;stroke-width:4.98989;stroke-dasharray:none"
         id="rect76"
         width="1.5269396"
         height="41.588669"
         x="172.13745"
         y="-26.139679"
         transform="matrix(0.85920606,0.51162969,-0.28693568,0.95794986,0,0)" /><rect
         style="fill:#000000;stroke-width:3.24194;stroke-dasharray:none"
         id="rect77"
         width="1.0684948"
         height="25.087173"
         x="129.98209"
         y="-21.874517"
         transform="matrix(0.90217577,0.4313686,-0.34950405,0.93693485,0,0)" /><rect
         style="fill:#000000;stroke-width:0.367837"
         id="rect78"
         width="41.594578"
         height="1.4412677"
         x="121.48931"
         y="43.837273"
         transform="matrix(0.99368062,0.11224462,-0.11274327,0.99362416,0,0)" /><rect
         style="fill:#000000;stroke-width:3.84611;stroke-dasharray:none"
         id="rect79"
         width="38.905334"
         height="1.5614179"
         x="86.008102"
         y="35.782494" /><rect
         style="fill:#000000;stroke-width:3.96632;stroke-dasharray:none"
         id="rect80"
         width="39.842224"
         height="1.6215003"
         x="123.04033"
         y="-53.18243"
         transform="matrix(0.76686669,0.64180641,-0.59613366,0.80288519,0,0)" /><rect
         style="fill:#000000;stroke-width:3.75499;stroke-dasharray:none"
         id="rect81"
         width="20.688787"
         height="1.9517725"
         x="75.670738"
         y="50.586731"
         transform="rotate(-11.65972)" /><rect
         style="fill:#000000;stroke-width:3.75499;stroke-dasharray:none"
         id="rect82"
         width="20.168314"
         height="1.8216543"
         x="110.20914"
         y="5.9983582"
         transform="rotate(12.632658)" /><rect
         style="fill:#000000;stroke-width:2.49904;stroke-dasharray:none"
         id="rect83"
         width="24.842903"
         height="1.0323558"
         x="130.77722"
         y="-30.31315"
         transform="matrix(0.8786631,0.47744229,-0.3450082,0.93859966,0,0)" /><rect
         style="fill:#000000;stroke-width:0.346269"
         id="rect84"
         width="42.238724"
         height="1.2577209"
         x="-146.92676"
         y="126.26082"
         transform="matrix(-0.32903824,-0.9443166,0.95864844,-0.28459298,0,0)" /><rect
         style="fill:#000000;stroke-width:0.346269"
         id="rect86"
         width="42.238724"
         height="1.2577209"
         x="-156.048"
         y="97.675087"
         transform="matrix(-0.54651997,-0.83744607,0.86204782,-0.50682692,0,0)" /><rect
         style="fill:#000000;stroke-width:0.25381"
         id="rect87"
         width="21.90325"
         height="1.3030993"
         x="-13.718958"
         y="190.853"
         transform="matrix(-0.00349739,-0.99999387,0.88731381,0.46116613,0,0)" /><ellipse
         style="fill:#000000;stroke-width:0.389001"
         id="path2"
         cx="102.12825"
         cy="97.343864"
         rx="3.4962826"
         ry="3.3122675" /><ellipse
         style="fill:#000000;stroke-width:0.552984"
         id="path3"
         cx="85.003708"
         cy="36.296375"
         rx="3.0539463"
         ry="3.092057" /><ellipse
         style="fill:#000000;stroke-width:0.389001"
         id="path4"
         cx="143.79456"
         cy="100.71003"
         rx="3.58829"
         ry="3.6802974" /><ellipse
         style="fill:#000000;stroke-width:0.389001"
         id="path5"
         cx="169.10966"
         cy="101.5762"
         rx="2.0241635"
         ry="2.3921933" /><ellipse
         style="fill:#000000;stroke-width:0.389001"
         id="path6"
         cx="169.88383"
         cy="81.34111"
         rx="1.1960967"
         ry="1.3801115" /><ellipse
         style="fill:#000000;stroke-width:0.389001"
         id="path7"
         cx="146.47583"
         cy="46.095726"
         rx="1.1040891"
         ry="1.0120817" /><circle
         style="fill:#000000;stroke-width:0.389001"
         id="path8"
         cx="125.59014"
         cy="35.79089"
         r="2.1161709" /><ellipse
         style="fill:#000000;stroke-width:0.479125"
         id="path9"
         cx="69.589195"
         cy="71.521347"
         rx="2.9126661"
         ry="2.6366434" /><ellipse
         style="fill:#000000;stroke-width:0.446575"
         id="path10"
         cx="116.87638"
         cy="58.613361"
         rx="1.9972153"
         ry="2.1115472" /><ellipse
         style="fill:#000000;stroke-width:0.701464"
         id="path11"
         cx="153.7063"
         cy="139.106"
         rx="3.5855813"
         ry="3.7156994" /><ellipse
         style="fill:#000000;stroke-width:0.389001"
         id="path12"
         cx="167.08551"
         cy="124.67007"
         rx="1.2881041"
         ry="1.7481413" /><ellipse
         style="fill:#000000;stroke-width:0.666932"
         id="path13"
         cx="142.40056"
         cy="156.52043"
         rx="2.1719828"
         ry="2.382946" /><circle
         style="fill:#000000;stroke-width:0.389001"
         id="path14"
         cx="113.44517"
         cy="138.47118"
         r="2.4842007" /><ellipse
         style="fill:#000000;stroke-width:0.445971"
         id="path15"
         cx="48.407074"
         cy="135.99162"
         rx="2.5873706"
         ry="2.5715845" /><ellipse
         style="fill:#000000;stroke-width:0.415598"
         id="path16"
         cx="68.047386"
         cy="120.98323"
         rx="2.1161709"
         ry="2.100385" /><ellipse
         style="fill:#000000;stroke-width:0.603834"
         id="path17"
         cx="81.000023"
         cy="157.52599"
         rx="2.3178871"
         ry="2.2528279" /><ellipse
         style="fill:#000000;stroke-width:0.389001"
         id="path18"
         cx="34.778812"
         cy="117.95353"
         rx="1.6561338"
         ry="1.472119" /><ellipse
         style="fill:#000000;stroke-width:0.469157"
         id="path19"
         cx="39.713722"
         cy="95.779739"
         rx="1.8736358"
         ry="1.9321562" /><ellipse
         style="fill:#000000;stroke-width:0.495709"
         id="path20"
         cx="37.911686"
         cy="76.561348"
         rx="1.835525"
         ry="1.7974144" /><ellipse
         style="fill:#000000;stroke-width:0.389001"
         id="path21"
         cx="50.530575"
         cy="58.290768"
         rx="1.7481413"
         ry="1.9321562" /><ellipse
         style="fill:#000000;stroke-width:0.389001"
         id="path22"
         cx="65.96933"
         cy="41.955387"
         rx="1.9321562"
         ry="1.6561338" /><circle
         style="fill:#000000;stroke-width:0.389001"
         id="path23"
         cx="105.34851"
         cy="30.638477"
         r="1.5641264" /><ellipse
         style="fill:#000000;stroke-width:0.389001"
         id="path24"
         cx="121.04095"
         cy="162.73883"
         rx="3.4962826"
         ry="3.4042749" /><ellipse
         style="fill:#000000;stroke-width:0.389001"
         id="path25"
         cx="61.368958"
         cy="153.28438"
         rx="1.3801115"
         ry="1.2881041" /><ellipse
         style="fill:#000000;stroke-width:0.389001"
         id="path26"
         cx="102.6803"
         cy="169.3857"
         rx="2.0241635"
         ry="1.9321562" /><ellipse
         style="fill:#000000;stroke-width:0.536742"
         id="path27"
         cx="156.35875"
         cy="62.894974"
         rx="2.6208577"
         ry="2.582747" /></g></g></svg>
