<?xml version="1.0" encoding="UTF-8" standalone="no"?>
<!-- Created with Inkscape (http://www.inkscape.org/) -->

<svg
   width="208.37854mm"
   height="287.60791mm"
   viewBox="0 0 208.37854 287.60791"
   version="1.1"
   id="svg1"
   xml:space="preserve"
   xmlns="http://www.w3.org/2000/svg"
   xmlns:svg="http://www.w3.org/2000/svg"><defs
     id="defs1" /><g
     id="layer1"
     transform="translate(-1.0343484,-7.3875211)"><path
       style="fill:#000000"
       d="M 105.66599,7.4123582 C 209.80278,7.7059449 209.80278,7.7059449 209.3604,151.48507 208.91802,295.26419 208.91802,295.26419 104.78124,294.9706 0.64445225,294.67702 0.64445225,294.67702 1.0868292,150.8979 1.5292072,7.1187715 1.5292072,7.1187715 105.66599,7.4123582 Z M 24.752343,154.91858 c 1.539969,4.94679 2.191864,8.99245 1.448655,8.99035 -2.444215,-0.007 -1.426595,5.54426 1.369524,7.4708 2.833315,1.95217 8.28793,15.80468 7.967118,20.23325 -0.100231,1.3836 0.554478,2.51772 1.45491,2.52025 0.900431,0.003 6.572674,3.97395 12.604983,8.82535 6.03231,4.8514 11.260489,8.53955 11.618176,8.19589 0.357687,-0.34367 -4.851474,-5.15861 -11.575913,-10.69987 -10.309721,-8.49571 -12.498876,-11.07745 -13.965416,-16.46988 -0.95654,-3.51716 -2.235732,-7.69027 -2.842649,-9.27357 -0.742729,-1.93759 0.118928,-1.4651 2.635638,1.44524 6.001893,6.94063 27.161801,34.5071 27.165641,35.39055 0.0019,0.44368 2.674466,3.03816 5.938974,5.76551 3.264507,2.72736 6.269008,5.34501 6.676668,5.817 0.40766,0.47199 4.757345,1.05129 9.665968,1.28733 9.400112,0.45202 17.59566,1.14152 18.21938,1.53282 4.24562,2.66355 30.2669,0.0135 35.564,-3.62186 3.33936,-2.29179 13.15148,-8.67602 21.80472,-14.18717 15.73317,-10.02027 15.73317,-10.02027 20.53614,-21.1497 2.64163,-6.12119 5.38407,-11.1278 6.09431,-11.1258 0.71024,0.002 1.20093,-1.45239 1.09042,-3.23199 -0.11051,-1.77959 1.26994,-7.76457 3.06768,-13.29994 3.26861,-10.06433 3.26861,-10.06433 -0.42671,-20.66786 -2.03242,-5.83195 -3.30483,-11.21014 -2.82759,-11.95154 0.47725,-0.74141 -0.10061,-2.44224 -1.28413,-3.77963 -1.18352,-1.33739 -3.01374,-6.5487 -4.06715,-11.58069 -1.70245,-8.13235 -2.74722,-9.89289 -9.40147,-15.842353 -4.1174,-3.681301 -8.85061,-8.011734 -10.51824,-9.623184 -1.66763,-1.611451 -7.54222,-5.747833 -13.05464,-9.19196 -5.51242,-3.444127 -10.02116,-6.722694 -10.01943,-7.285704 0.002,-0.56301 -3.17646,-1.124965 -7.06265,-1.248787 -3.88618,-0.123823 -16.09474,-1.186344 -27.13012,-2.361157 -11.035384,-1.174813 -20.406147,-1.70451 -20.823918,-1.177105 -2.280755,2.879284 -19.718525,14.542497 -20.784443,13.901627 -0.692206,-0.41618 -2.272306,0.729013 -3.511333,2.544875 -1.239027,1.815861 -6.244557,5.840016 -11.123399,8.942568 -6.695535,4.257822 -9.26095,6.873831 -10.462495,10.66883 -0.87553,2.7653 -4.953898,13.10599 -9.06304,22.97931 -8.760162,21.04864 -8.555848,19.76574 -4.978169,31.2582 z m 3.983214,-21.19638 c 4.562394,-8.24248 5.075881,-8.74428 4.401111,-4.301 -2.10928,13.88937 -3.865944,30.6101 -3.27611,31.18353 0.926661,0.90089 2.000536,-4.96058 4.202571,-22.93862 1.280989,-10.45836 2.649712,-16.10102 4.221514,-17.40348 4.654815,-3.85719 42.243405,-15.46284 41.015226,-12.66364 -2.264182,5.1604 -10.008354,24.43423 -14.436671,35.93024 -5.640684,14.64335 -4.627227,14.90382 -16.041021,-4.1228 -8.538912,-14.23424 -11.937373,-18.93797 -11.944774,-16.53247 -0.0014,0.44051 4.708667,8.2431 10.466716,17.33908 11.887392,18.77849 11.88184,18.34999 0.269525,20.80195 -4.745222,1.00196 -9.654992,2.33905 -10.910601,2.97131 -3.790529,1.9087 -8.375935,-3.04823 -10.917669,-11.80226 -2.836483,-9.76917 -3.232235,-7.29261 2.950183,-18.46184 z m 6.160707,33.73226 c 1.32661,-1.81102 22.233525,-7.73879 23.376211,-6.62789 1.447964,1.40769 0.750392,40.77078 -0.70699,39.89455 -5.486631,-3.29877 -24.347081,-30.97613 -22.669221,-33.26666 z m 15.519237,-67.11803 c 13.786093,-17.971082 13.635781,-17.925846 22.061633,-6.639452 3.560422,4.76917 6.833797,8.325042 7.274166,7.901942 0.440369,-0.42311 -2.304456,-4.612406 -6.099611,-9.309553 -9.075129,-11.232009 -9.941905,-10.326226 14.608939,-15.266368 24.118992,-4.853244 24.039902,-6.549973 0.810779,17.39324 -7.678209,7.914251 -46.6997,24.994221 -49.929344,21.854411 -0.299331,-0.291 4.773716,-7.4614 11.273438,-15.93422 z m 12.79948,62.51697 c 9.823137,6.98711 38.903389,30.55059 38.900409,31.52066 -0.005,1.49601 -1.70406,1.95253 -20.844767,5.59957 -8.5964,1.63794 -16.802409,3.31693 -18.235576,3.73108 -2.401524,0.69398 -2.600515,-0.95136 -2.538854,-20.99228 0.06345,-20.62146 0.203959,-21.6478 2.718788,-19.85903 z m 7.636051,-29.82497 c 4.771257,-11.89991 9.150965,-22.82437 9.732686,-24.27659 1.293974,-3.23031 26.065732,31.68347 25.069132,35.33291 -0.55291,2.02471 -6.090063,3.70278 -40.9849,12.42072 -3.584991,0.89566 -3.577075,0.8656 6.183082,-23.47704 z m 13.52078,20.41677 c 25.982698,-6.5368 24.361138,-7.68221 23.011738,16.25462 -1.41436,25.08904 -1.23785,24.9129 -14.330262,14.30017 -3.580718,-2.90254 -11.518922,-9.30692 -17.640455,-14.23195 -6.121532,-4.92503 -11.317164,-9.42823 -11.545849,-10.00709 -0.228685,-0.57887 8.998487,-3.42096 20.504828,-6.31575 z m -0.918931,47.88572 c 21.786199,-4.2849 21.629859,-4.35252 21.587739,9.33719 -0.039,12.66225 1.16422,11.96744 1.63652,-0.94505 0.45966,-12.56697 1.43147,-12.78945 24.41801,-5.59017 17.83499,5.58584 17.83499,5.58584 -1.52397,11.79471 -24.20914,7.76444 -24.45606,7.75658 -46.485492,-1.47878 -22.221493,-9.31588 -22.239527,-8.67163 0.367193,-13.1179 z M 96.806904,89.114561 c 7.646986,-8.032573 14.563676,-14.774738 15.370416,-14.982591 1.26344,-0.325517 6.58262,5.575481 24.35556,27.01956 3.61976,4.36745 3.61976,4.36745 -24.55771,3.56325 -19.654388,-0.56095 -24.353666,-0.43602 -15.535914,0.41302 6.952854,0.66948 19.128984,1.29974 27.058074,1.40058 18.38519,0.23382 18.31161,-0.30892 2.51954,18.58539 -16.76251,20.05537 -21.0522,18.05772 -42.117678,-19.61357 -0.602953,-1.07826 4.489958,-7.543434 12.907712,-16.385639 z m 12.725446,74.735389 c 0.49374,-6.88199 1.61679,-13.20076 2.49568,-14.04171 1.42308,-1.36165 34.28127,8.71113 41.83425,12.82442 1.57286,0.85656 -4.01553,5.02212 -20.38008,15.19122 -12.40095,7.70607 -22.22752,14.32181 -21.83682,14.70164 0.3907,0.37983 10.57768,-5.50747 22.63772,-13.0829 25.88699,-16.26071 23.64471,-16.8421 20.7414,5.37794 -2.58807,19.80741 -2.76985,23.29429 -0.98991,18.98837 0.65301,-1.57975 2.09894,-11.1438 3.21317,-21.25346 1.73393,-15.73242 2.36216,-18.24225 4.35963,-17.41693 1.28356,0.53035 5.64395,2.23152 9.68974,3.78038 15.07807,5.77236 15.53394,3.22053 -4.313,24.14299 -3.36663,3.54907 -7.12919,7.70649 -8.36124,9.2387 -3.8712,4.81432 1.22738,1.0208 7.31464,-5.44236 17.644,-18.73353 16.977,-18.22653 13.0662,-9.93201 -4.47293,9.48674 -21.89518,24.03769 -21.87744,18.2719 10e-4,-0.45356 -1.36319,0.0941 -3.03242,1.21705 -2.71028,1.82327 -4.89751,1.45992 -20.44517,-3.39638 -9.57561,-2.99093 -18.38983,-5.68098 -19.58716,-5.97789 -5.701,-1.41373 -6.42719,-6.73542 -4.52919,-33.19097 z m 18.33011,-38.17299 c 7.4641,-8.9069 13.90267,-15.872 14.30793,-15.47801 0.74931,0.72846 14.89301,50.257 14.49451,50.75698 -1.16229,1.45828 -42.48923,-14.87002 -42.43716,-16.76694 0.035,-1.27472 6.17062,-9.60513 13.63472,-18.51203 z m -5.4024,-53.338238 c 10.55019,-2.535857 14.49554,-1.927179 22.81067,3.519164 10.20821,6.686295 10.14304,6.704589 -6.72022,1.886215 -7.97069,-2.277479 -15.4969,-3.959512 -16.72492,-3.737849 -2.13742,0.385813 30.45588,9.741121 33.97198,9.751034 2.84549,0.008 1.9809,1.928004 -5.04372,11.20053 -8.39576,11.082444 -7.21081,11.300224 -20.25857,-3.723394 -16.52802,-19.030908 -15.6883,-17.056195 -8.03522,-18.8957 z m 23.09977,37.270168 c 3.41353,0.01 35.8578,15.11122 36.96611,17.20635 1.47393,2.7863 3.06747,44.73238 1.6992,44.72749 -1.48546,-0.005 -16.55141,-5.71704 -21.04081,-7.9769 -2.91133,-1.46549 -4.52341,-3.90841 -5.88807,-8.92267 -2.03236,-7.46767 -11.57218,-40.29739 -12.56469,-43.23935 -0.3338,-0.98943 0.0389,-1.79714 0.82826,-1.79492 z m 6.88671,-14.145175 c 3.80135,-4.913567 7.20034,-8.653001 7.55331,-8.309853 0.74595,0.725202 12.22068,18.612028 18.50067,28.838878 2.37161,3.86212 3.44418,6.6616 2.38348,6.22108 -40.69764,-16.90231 -38.01119,-14.37526 -28.43746,-26.750105 z"
       id="path1" /></g></svg>
