<?xml version="1.0" encoding="UTF-8" standalone="no"?>
<!-- Created with Inkscape (http://www.inkscape.org/) -->

<svg
   width="202.48288mm"
   height="282.43317mm"
   viewBox="0 0 202.48288 282.43317"
   version="1.1"
   id="svg1"
   xmlns="http://www.w3.org/2000/svg"
   xmlns:svg="http://www.w3.org/2000/svg">
  <defs
     id="defs1" />
  <g
     id="g42"
     transform="translate(-3.1960337,-1.5485052)">
    <g
       id="g6"
       transform="matrix(0.39042519,0,0,0.38731397,-24.650668,32.531861)">
      <g
         id="g4"
         transform="matrix(0.93800541,0,0,0.95738635,9.8792665,7.2220611)">
        <ellipse
           style="fill:#000000;fill-opacity:1;stroke-width:4.14552"
           id="path3"
           cx="125.22211"
           cy="137.09108"
           rx="34.134758"
           ry="32.386616" />
        <ellipse
           style="fill:#ffffff;fill-opacity:1;stroke-width:3.83169"
           id="path4"
           cx="125.22211"
           cy="137.45912"
           rx="30.638472"
           ry="29.258364" />
      </g>
      <g
         id="g5"
         transform="matrix(0.86154176,0,0,0.91199786,73.581375,7.7614702)">
        <circle
           style="fill:#000000;stroke-width:3.75499"
           id="path1"
           cx="62.381039"
           cy="128.99443"
           r="13.065056" />
        <path
           style="fill:#000000;stroke-width:2.71619"
           d="m 44.063817,168.18533 36.000023,-0.0496 0.744074,-16.936 c -1.246946,-4.87187 -3.052836,-9.3944 -10.375075,-10.46957 -5.210853,3.71061 -10.681024,4.43906 -16.58482,0.18082 -5.441791,1.69428 -9.056234,4.82268 -10.301505,9.81042 z"
           id="path2" />
      </g>
    </g>
    <g
       id="g9"
       transform="matrix(0.67489343,0,0,0.67267459,41.398511,-11.666617)">
      <g
         id="g7"
         transform="matrix(0.93800541,0,0,0.95738635,9.8792665,7.2220611)">
        <ellipse
           style="fill:#000000;fill-opacity:1;stroke-width:4.14552"
           id="ellipse6"
           cx="125.22211"
           cy="137.09108"
           rx="34.134758"
           ry="32.386616" />
        <ellipse
           style="fill:#ffffff;fill-opacity:1;stroke-width:3.83169"
           id="ellipse7"
           cx="125.22211"
           cy="137.45912"
           rx="30.638472"
           ry="29.258364" />
      </g>
      <g
         id="g8"
         transform="matrix(0.86154176,0,0,0.91199786,73.581375,7.7614702)">
        <circle
           style="fill:#000000;stroke-width:3.75499"
           id="circle7"
           cx="62.381039"
           cy="128.99443"
           r="13.065056" />
        <path
           style="fill:#000000;stroke-width:2.71619"
           d="m 44.063817,168.18533 36.000023,-0.0496 0.744074,-16.936 c -1.246946,-4.87187 -3.052836,-9.3944 -10.375075,-10.46957 -5.210853,3.71061 -10.681024,4.43906 -16.58482,0.18082 -5.441791,1.69428 -9.056234,4.82268 -10.301505,9.81042 z"
           id="path7" />
      </g>
    </g>
    <g
       id="g12"
       transform="matrix(1.0406382,0,0,1.008393,-60.60515,-4.0247834)">
      <g
         id="g10"
         transform="matrix(0.93800541,0,0,0.95738635,9.8792665,7.2220611)">
        <ellipse
           style="fill:#000000;fill-opacity:1;stroke-width:4.14552"
           id="ellipse9"
           cx="125.22211"
           cy="137.09108"
           rx="34.134758"
           ry="32.386616" />
        <ellipse
           style="fill:#ffffff;fill-opacity:1;stroke-width:3.83169"
           id="ellipse10"
           cx="125.22211"
           cy="137.45912"
           rx="30.638472"
           ry="29.258364" />
      </g>
      <g
         id="g11"
         transform="matrix(0.86154176,0,0,0.91199786,73.581375,7.7614702)">
        <circle
           style="fill:#000000;stroke-width:3.75499"
           id="circle10"
           cx="62.381039"
           cy="128.99443"
           r="13.065056" />
        <path
           style="fill:#000000;stroke-width:2.71619"
           d="m 44.063817,168.18533 36.000023,-0.0496 0.744074,-16.936 c -1.246946,-4.87187 -3.052836,-9.3944 -10.375075,-10.46957 -5.210853,3.71061 -10.681024,4.43906 -16.58482,0.18082 -5.441791,1.69428 -9.056234,4.82268 -10.301505,9.81042 z"
           id="path10" />
      </g>
    </g>
    <g
       id="g15"
       transform="matrix(0.78055302,0,0,0.80696198,-38.93674,-84.390701)">
      <g
         id="g13"
         transform="matrix(0.93800541,0,0,0.95738635,9.8792665,7.2220611)">
        <ellipse
           style="fill:#000000;fill-opacity:1;stroke-width:4.14552"
           id="ellipse12"
           cx="125.22211"
           cy="137.09108"
           rx="34.134758"
           ry="32.386616" />
        <ellipse
           style="fill:#ffffff;fill-opacity:1;stroke-width:3.83169"
           id="ellipse13"
           cx="125.22211"
           cy="137.45912"
           rx="30.638472"
           ry="29.258364" />
      </g>
      <g
         id="g14"
         transform="matrix(0.86154176,0,0,0.91199786,73.581375,7.7614702)">
        <circle
           style="fill:#000000;stroke-width:3.75499"
           id="circle13"
           cx="62.381039"
           cy="128.99443"
           r="13.065056" />
        <path
           style="fill:#000000;stroke-width:2.71619"
           d="m 44.063817,168.18533 36.000023,-0.0496 0.744074,-16.936 c -1.246946,-4.87187 -3.052836,-9.3944 -10.375075,-10.46957 -5.210853,3.71061 -10.681024,4.43906 -16.58482,0.18082 -5.441791,1.69428 -9.056234,4.82268 -10.301505,9.81042 z"
           id="path13" />
      </g>
    </g>
    <g
       id="g21"
       transform="matrix(1.3820001,0,0,1.4028621,-14.552291,-19.872174)">
      <g
         id="g19"
         transform="matrix(0.93800541,0,0,0.95738635,9.8792665,7.2220611)">
        <ellipse
           style="fill:#000000;fill-opacity:1;stroke-width:4.14552"
           id="ellipse18"
           cx="125.22211"
           cy="137.09108"
           rx="34.134758"
           ry="32.386616" />
        <ellipse
           style="fill:#ffffff;fill-opacity:1;stroke-width:3.83169"
           id="ellipse19"
           cx="125.22211"
           cy="137.45912"
           rx="30.638472"
           ry="29.258364" />
      </g>
      <g
         id="g20"
         transform="matrix(0.86154176,0,0,0.91199786,73.581375,7.7614702)">
        <circle
           style="fill:#000000;stroke-width:3.75499"
           id="circle19"
           cx="62.381039"
           cy="128.99443"
           r="13.065056" />
        <path
           style="fill:#000000;stroke-width:2.71619"
           d="m 44.063817,168.18533 36.000023,-0.0496 0.744074,-16.936 c -1.246946,-4.87187 -3.052836,-9.3944 -10.375075,-10.46957 -5.210853,3.71061 -10.681024,4.43906 -16.58482,0.18082 -5.441791,1.69428 -9.056234,4.82268 -10.301505,9.81042 z"
           id="path19" />
      </g>
    </g>
    <g
       id="g24"
       transform="matrix(0.78868073,0,0,0.7733901,-71.980771,101.90299)">
      <g
         id="g22"
         transform="matrix(0.93800541,0,0,0.95738635,9.8792665,7.2220611)">
        <ellipse
           style="fill:#000000;fill-opacity:1;stroke-width:4.14552"
           id="ellipse21"
           cx="125.22211"
           cy="137.09108"
           rx="34.134758"
           ry="32.386616" />
        <ellipse
           style="fill:#ffffff;fill-opacity:1;stroke-width:3.83169"
           id="ellipse22"
           cx="125.22211"
           cy="137.45912"
           rx="30.638472"
           ry="29.258364" />
      </g>
      <g
         id="g23"
         transform="matrix(0.86154176,0,0,0.91199786,73.581375,7.7614702)">
        <circle
           style="fill:#000000;stroke-width:3.75499"
           id="circle22"
           cx="62.381039"
           cy="128.99443"
           r="13.065056" />
        <path
           style="fill:#000000;stroke-width:2.71619"
           d="m 44.063817,168.18533 36.000023,-0.0496 0.744074,-16.936 c -1.246946,-4.87187 -3.052836,-9.3944 -10.375075,-10.46957 -5.210853,3.71061 -10.681024,4.43906 -16.58482,0.18082 -5.441791,1.69428 -9.056234,4.82268 -10.301505,9.81042 z"
           id="path22" />
      </g>
    </g>
    <rect
       style="fill:#000000;fill-opacity:1;stroke-width:2.70236"
       id="rect27"
       width="2.6689322"
       height="33.854385"
       x="104.68743"
       y="136.38538"
       transform="matrix(0.95200225,0.30609104,-0.33159451,0.94342201,0,0)" />
    <g
       id="g30"
       transform="matrix(1.0406382,0,0,1.008393,-28.856318,113.08156)">
      <g
         id="g28"
         transform="matrix(0.93800541,0,0,0.95738635,9.8792665,7.2220611)">
        <ellipse
           style="fill:#000000;fill-opacity:1;stroke-width:4.14552"
           id="ellipse27"
           cx="125.22211"
           cy="137.09108"
           rx="34.134758"
           ry="32.386616" />
        <ellipse
           style="fill:#ffffff;fill-opacity:1;stroke-width:3.83169"
           id="ellipse28"
           cx="125.22211"
           cy="137.45912"
           rx="30.638472"
           ry="29.258364" />
      </g>
      <g
         id="g29"
         transform="matrix(0.86154176,0,0,0.91199786,73.581375,7.7614702)">
        <circle
           style="fill:#000000;stroke-width:3.75499"
           id="circle28"
           cx="62.381039"
           cy="128.99443"
           r="13.065056" />
        <path
           style="fill:#000000;stroke-width:2.71619"
           d="m 44.063817,168.18533 36.000023,-0.0496 0.744074,-16.936 c -1.246946,-4.87187 -3.052836,-9.3944 -10.375075,-10.46957 -5.210853,3.71061 -10.681024,4.43906 -16.58482,0.18082 -5.441791,1.69428 -9.056234,4.82268 -10.301505,9.81042 z"
           id="path28" />
      </g>
    </g>
    <rect
       style="fill:#000000;fill-opacity:1;stroke-width:2.56112"
       id="rect30"
       width="2.5198486"
       height="32.207092"
       x="129.02496"
       y="49.734806"
       transform="matrix(0.95114438,0.30874645,-0.32878813,0.94440371,0,0)" />
    <rect
       style="fill:#000000;fill-opacity:1;stroke-width:1.89418"
       id="rect31"
       width="1.8055701"
       height="24.58638"
       x="143.48436"
       y="-9.2501745"
       transform="matrix(0.94342859,0.33157578,-0.30610863,0.95199659,0,0)" />
    <rect
       style="fill:#000000;fill-opacity:1;stroke-width:4.23136"
       id="rect32"
       width="2.4588556"
       height="90.09343"
       x="23.448364"
       y="95.342117"
       transform="matrix(0.99673373,0.08075812,-0.01891878,0.99982102,0,0)" />
    <rect
       style="fill:#000000;fill-opacity:1;stroke-width:2.83258"
       id="rect33"
       width="2.9189587"
       height="34.009651"
       x="55.518894"
       y="30.823977"
       transform="matrix(0.96071488,0.27753725,-0.36430661,0.93127906,0,0)" />
    <rect
       style="fill:#000000;fill-opacity:1;stroke-width:2.02999"
       id="rect34"
       width="1.8459245"
       height="27.620983"
       x="-19.884573"
       y="93.616959"
       transform="matrix(0.73675945,-0.67615494,0.5190048,0.85477132,0,0)" />
    <rect
       style="fill:#000000;fill-opacity:1;stroke-width:3.00871"
       id="rect35"
       width="2.5424194"
       height="44.0532"
       x="29.344114"
       y="94.014038"
       transform="matrix(0.46131205,-0.88723796,0.68466557,0.72885737,0,0)" />
    <rect
       style="fill:#000000;fill-opacity:1;stroke-width:2.15956"
       id="rect36"
       width="1.8641163"
       height="30.954266"
       x="-7.8563247"
       y="169.36499"
       transform="matrix(0.3992571,-0.91683901,0.6183283,0.78591992,0,0)" />
    <rect
       style="fill:#000000;fill-opacity:1;stroke-width:3.0374"
       id="rect37"
       width="2.6136761"
       height="43.672966"
       x="47.281498"
       y="185.24071"
       transform="matrix(0.40861277,-0.91270784,0.62887594,0.77750566,0,0)" />
    <rect
       style="fill:#000000;fill-opacity:1;stroke-width:2.99489"
       id="rect38"
       width="2.5407155"
       height="43.678699"
       x="-21.170366"
       y="77.584831"
       transform="matrix(-0.27873132,-0.96036912,0.9986035,0.05283048,0,0)" />
    <rect
       style="fill:#000000;fill-opacity:1;stroke-width:6.6938"
       id="rect39"
       width="4.9553299"
       height="111.87572"
       x="160.43753"
       y="-11.660696"
       transform="matrix(0.96500867,0.26221798,0.25500917,0.96693863,0,0)" />
    <g
       id="g18"
       transform="matrix(0.60987207,0,0,0.64749574,63.730973,-68.034421)">
      <g
         id="g16"
         transform="matrix(0.93800541,0,0,0.95738635,9.8792665,7.2220611)">
        <ellipse
           style="fill:#000000;fill-opacity:1;stroke-width:4.14552"
           id="ellipse15"
           cx="125.22211"
           cy="137.09108"
           rx="34.134758"
           ry="32.386616" />
        <ellipse
           style="fill:#ffffff;fill-opacity:1;stroke-width:3.83169"
           id="ellipse16"
           cx="125.22211"
           cy="137.45912"
           rx="30.638472"
           ry="29.258364" />
      </g>
      <g
         id="g17"
         transform="matrix(0.86154176,0,0,0.91199786,73.581375,7.7614702)">
        <circle
           style="fill:#000000;stroke-width:3.75499"
           id="circle16"
           cx="62.381039"
           cy="128.99443"
           r="13.065056" />
        <path
           style="fill:#000000;stroke-width:2.71619"
           d="m 44.063817,168.18533 36.000023,-0.0496 0.744074,-16.936 c -1.246946,-4.87187 -3.052836,-9.3944 -10.375075,-10.46957 -5.210853,3.71061 -10.681024,4.43906 -16.58482,0.18082 -5.441791,1.69428 -9.056234,4.82268 -10.301505,9.81042 z"
           id="path16" />
      </g>
    </g>
    <rect
       style="fill:#000000;fill-opacity:1;stroke-width:3.19425"
       id="rect40"
       width="2.7319674"
       height="46.208687"
       x="-231.00082"
       y="9.9783764"
       transform="matrix(-0.08372615,-0.9964888,0.94256833,0.33401338,0,0)" />
    <rect
       style="fill:#000000;fill-opacity:1;stroke-width:4.72854"
       id="rect41"
       width="4.2107997"
       height="65.698143"
       x="18.874899"
       y="172.12848"
       transform="matrix(0.98481408,0.17361231,0.37657682,0.92638539,0,0)" />
    <rect
       style="fill:#000000;fill-opacity:1;stroke-width:3.41576"
       id="rect42"
       width="4.5994864"
       height="31.385748"
       x="298.67593"
       y="228.31612"
       transform="matrix(0.99099882,0.13387064,-0.64164789,0.76699934,0,0)" />
  </g>
</svg>
